<svg width="411" height="128" viewBox="0 0 411 128" fill="none" xmlns="http://www.w3.org/2000/svg">
<path d="M93.8379 0.0722656C77.173 1.18412 64 15.0535 64 32C64 49.6731 78.3269 64 96 64C112.8 64 126.575 51.0543 127.896 34.5947H128V93.4053H127.896C126.575 76.9457 112.8 64 96 64C78.3269 64 64 78.3269 64 96C64 112.946 77.173 126.816 93.8379 127.928V128H34.1621V127.928C50.827 126.816 64 112.946 64 96C64 78.3269 49.6731 64 32 64C15.2004 64 1.42529 76.9457 0.104492 93.4053H0V34.5947H0.104492C1.42529 51.0543 15.2004 64 32 64C49.6731 64 64 49.6731 64 32C64 15.0535 50.827 1.18412 34.1621 0.0722656V0H93.8379V0.0722656ZM265.533 41.1025C274.882 41.1025 279.557 46.5715 279.557 57.5088V101.163C279.557 105.157 280.548 107.155 282.531 107.155C283.759 107.155 284.893 106.346 285.932 104.729C286.97 103.018 287.489 100.164 287.489 96.1699C287.489 94.6483 288.103 93.8877 289.331 93.8877C290.464 93.8878 291.03 94.696 291.03 96.3125C291.03 103.255 289.803 108.296 287.348 111.435C284.987 114.478 282.295 116 279.273 116C277.007 116 275.213 115.096 273.891 113.289C272.569 111.387 271.671 109.152 271.199 106.584C271.105 105.633 270.68 105.158 269.925 105.158C269.264 105.063 268.602 105.49 267.941 106.441C265.675 109.58 263.362 111.958 261.001 113.575C258.64 115.192 255.713 116 252.219 116C248.253 116 244.994 114.764 242.444 112.291C239.895 109.723 238.62 106.347 238.62 102.162C238.62 98.0725 239.895 94.2205 242.444 90.6064C244.994 86.8973 248.488 83.5685 252.927 80.6201C257.365 77.6719 262.417 75.2943 268.083 73.4873C269.311 73.1069 269.925 72.2979 269.925 71.0615V58.0791C269.925 53.5143 269.216 50.281 267.8 48.3789C266.383 46.3816 264.447 45.3828 261.992 45.3828C259.631 45.3828 257.46 46.4766 255.477 48.6641C253.588 50.7564 252.218 54.3227 251.368 59.3633C250.896 62.4067 249.857 64.6417 248.252 66.0684C246.741 67.3999 245.183 68.0654 243.577 68.0654C240.933 68.0653 239.611 66.7341 239.611 64.0713C239.611 61.3132 240.367 58.6025 241.878 55.9395C243.483 53.1815 245.561 50.7089 248.11 48.5215C250.66 46.239 253.446 44.4321 256.468 43.1006C259.49 41.7691 262.511 41.1026 265.533 41.1025ZM322.395 41.1025C326.738 41.1026 330.138 41.9591 332.593 43.6709C333.537 44.3367 334.01 45.383 334.01 46.8096L334.293 64.2139C334.293 65.6405 333.726 66.3535 332.593 66.3535C331.554 66.3534 330.893 65.7353 330.609 64.499C329.287 59.2683 328.013 55.2262 326.785 52.373C325.558 49.5201 324.283 47.5706 322.961 46.5244C321.639 45.3831 320.175 44.8125 318.569 44.8125C316.681 44.8126 314.698 45.9064 312.62 48.0938C310.637 50.2812 308.937 53.8476 307.521 58.793C306.198 63.6434 305.538 70.063 305.538 78.0518C305.538 88.2282 306.813 95.8847 309.362 101.021C312.006 106.156 315.406 108.725 319.562 108.725C322.866 108.724 325.604 107.345 327.776 104.587C330.043 101.829 331.98 96.8356 333.585 89.6074C333.868 88.5615 334.434 88.0381 335.284 88.0381C336.417 88.0381 336.843 88.9895 336.56 90.8916C335.521 97.549 334.057 102.732 332.168 106.441C330.374 110.055 328.202 112.576 325.652 114.003C323.197 115.334 320.411 116 317.295 116C313.14 116 309.362 114.621 305.963 111.863C302.658 109.01 300.013 104.967 298.03 99.7363C296.047 94.5055 295.056 88.2759 295.056 81.0479C295.056 72.964 296.236 65.9262 298.597 59.9346C301.052 53.9428 304.358 49.3294 308.513 46.0957C312.668 42.7671 317.295 41.1025 322.395 41.1025ZM395.985 41.1025C397.874 41.1026 399.716 41.3409 401.51 41.8164C403.304 42.1968 404.909 42.8625 406.325 43.8135C407.175 44.3841 407.6 45.1448 407.601 46.0957L407.884 61.7891C407.884 63.2155 407.317 63.9287 406.184 63.9287C405.523 63.9287 405.051 63.7385 404.768 63.3584C404.484 62.883 404.248 62.312 404.06 61.6465C402.171 55.4647 400.282 51.1844 398.394 48.8066C396.505 46.3338 394.191 45.0977 391.452 45.0977C388.997 45.0977 386.967 45.9532 385.361 47.665C383.756 49.377 382.953 51.5171 382.953 54.085C382.953 57.4136 383.945 60.3144 385.928 62.7871C387.911 65.2599 391.5 68.3039 396.693 71.918C401.415 75.3418 404.957 79.0505 407.317 83.0449C409.773 86.9443 411 91.2245 411 95.8848C411 101.972 409.064 106.87 405.192 110.579C401.321 114.193 396.221 116 389.894 116C387.722 116 385.408 115.714 382.953 115.144C380.498 114.668 378.515 114.05 377.004 113.289C376.154 112.814 375.729 112.005 375.729 110.864L375.304 94.8857C375.304 93.2692 375.918 92.4609 377.146 92.4609C378.184 92.461 378.893 93.2216 379.271 94.7432C380.876 101.496 382.812 106.109 385.078 108.582C387.439 111.055 390.272 112.291 393.577 112.291C396.316 112.291 398.582 111.245 400.376 109.152C402.17 106.965 403.067 103.969 403.067 100.165C403.067 96.3609 402.029 92.9844 399.951 90.0361C397.874 87.0878 394.379 83.8539 389.469 80.335C384.558 77.0062 380.97 73.6774 378.703 70.3486C376.437 66.9248 375.304 63.2152 375.304 59.2207C375.304 53.7997 377.192 49.4244 380.97 46.0957C384.747 42.7669 389.753 41.1025 395.985 41.1025ZM164.956 12C167.883 12.0001 169.678 13.4271 170.339 16.2803L187.479 87.4678C187.667 88.1334 187.95 88.4667 188.328 88.4668C188.8 88.4668 189.083 88.1335 189.178 87.4678L207.026 15.5664C207.593 13.189 209.104 12.0001 211.559 12H228.273C229.69 12 230.398 12.5232 230.398 13.5693C230.398 14.4253 229.784 14.9959 228.557 15.2812L225.299 15.8516C223.316 16.232 221.994 16.7553 221.333 17.4209C220.672 18.0867 220.389 19.4188 220.483 21.416L223.316 105.301C223.411 107.298 223.741 108.629 224.308 109.295C224.874 109.961 226.149 110.484 228.132 110.864L231.39 111.435C232.617 111.72 233.231 112.291 233.231 113.146C233.231 114.193 232.523 114.716 231.106 114.716H205.468C204.051 114.716 203.343 114.193 203.343 113.146C203.343 112.291 203.957 111.72 205.185 111.435L208.442 110.864C210.425 110.484 211.748 109.961 212.409 109.295C213.07 108.629 213.353 107.298 213.259 105.301L210.851 23.6982C210.851 23.0325 210.615 22.6993 210.143 22.6992C209.765 22.6041 209.482 22.8424 209.293 23.4131L187.762 111.007C187.573 111.958 187.242 112.576 186.771 112.861C186.393 113.147 186.014 113.289 185.637 113.289C185.259 113.289 184.834 113.147 184.362 112.861C183.89 112.576 183.559 111.958 183.37 111.007L161.981 23.5557C161.887 22.8899 161.603 22.6041 161.131 22.6992C160.659 22.6994 160.423 23.0327 160.423 23.6982L157.59 102.447C157.495 105.11 157.921 107.155 158.865 108.582C159.81 109.913 161.462 110.769 163.822 111.149L165.664 111.435C166.892 111.53 167.506 112.1 167.506 113.146C167.506 114.193 166.797 114.716 165.381 114.716H145.125C143.708 114.716 143 114.193 143 113.146C143 112.1 143.614 111.53 144.842 111.435L146.683 111.149C149.138 110.769 150.791 109.913 151.641 108.582C152.585 107.155 153.105 105.11 153.199 102.447L156.032 21.416C156.127 19.4188 155.843 18.0867 155.182 17.4209C154.52 16.7553 153.104 16.2319 150.933 15.8516L147.675 15.2812C146.447 14.9959 145.833 14.4253 145.833 13.5693C145.833 12.5232 146.542 12 147.958 12H164.956ZM359.346 41.5312C360.196 41.5312 360.621 42.1019 360.621 43.2432V105.158C360.621 107.155 360.904 108.582 361.471 109.438C362.037 110.293 363.123 110.817 364.729 111.007L368.271 111.435C369.309 111.625 369.828 112.148 369.828 113.004C369.828 114.145 369.12 114.716 367.703 114.716H344.048C342.631 114.716 341.923 114.193 341.923 113.146C341.923 112.291 342.537 111.72 343.765 111.435L345.465 111.149C347.825 110.769 349.336 110.198 349.997 109.438C350.658 108.582 350.988 107.155 350.988 105.158V57.2236C350.988 55.5117 350.705 54.3704 350.139 53.7998C349.667 53.1341 348.769 52.7058 347.447 52.5156L344.473 52.0879C343.245 51.9928 342.632 51.4696 342.632 50.5186C342.632 49.7577 343.387 49.2346 344.897 48.9492C347.825 48.4737 350.186 47.7132 351.98 46.667C353.775 45.6208 355.522 44.3362 357.222 42.8145C358.071 41.9589 358.779 41.5315 359.346 41.5312ZM269.925 79.3359C269.925 77.5291 268.933 77.0059 266.95 77.7666C261.19 79.8589 256.704 82.7597 253.493 86.4688C250.377 90.0828 248.818 94.458 248.818 99.5938C248.818 106.156 251.227 109.438 256.043 109.438C258.498 109.437 260.764 108.582 262.842 106.87C264.919 105.063 266.619 102.685 267.941 99.7363C269.263 96.788 269.925 93.4591 269.925 89.75V79.3359ZM355.946 13.4268C357.929 13.4268 359.582 14.1398 360.904 15.5664C362.226 16.8979 362.888 18.6574 362.888 20.8447C362.888 23.0322 362.226 24.84 360.904 26.2666C359.582 27.693 357.929 28.4062 355.946 28.4062C353.963 28.4062 352.263 27.6931 350.847 26.2666C349.525 24.84 348.864 23.0322 348.864 20.8447C348.864 18.6575 349.525 16.8978 350.847 15.5664C352.263 14.1399 353.963 13.4268 355.946 13.4268Z" fill="#26251E"/>
</svg>
