<svg width="300" height="300" viewBox="0 0 300 300" fill="none" xmlns="http://www.w3.org/2000/svg">
<path d="M219.933 0V0.168945C180.874 2.7748 150 35.2816 150 75C150 116.421 183.579 150 225 150C264.374 150 296.66 119.658 299.756 81.0811H300V218.919H299.756C296.66 180.342 264.374 150 225 150C183.579 150 150 183.579 150 225C150 264.718 180.874 297.225 219.933 299.831V300H80.0674V299.831C119.126 297.225 150 264.718 150 225C150 183.579 116.421 150 75 150C35.6259 150 3.33956 180.342 0.244141 218.919H0V81.0811H0.244141C3.33956 119.658 35.6259 150 75 150C116.421 150 150 116.421 150 75C150 35.2816 119.126 2.7748 80.0674 0.168945V0H219.933Z" fill="#26251E"/>
</svg>
