<svg width="250" height="250" viewBox="0 0 250 250" fill="none" xmlns="http://www.w3.org/2000/svg">
<rect width="250" height="250" rx="75" fill="#26251E"/>
<path d="M125 50C166.421 50 200 83.5786 200 125C200 166.421 166.421 200 125 200C83.5786 200 50 166.421 50 125C50 83.5786 83.5786 50 125 50ZM84.083 143.749C91.1931 159.24 106.839 170 125 170C131.692 170 138.042 168.536 143.75 165.916V143.75H106.25V143.749H84.083ZM125 80C118.308 80 111.958 81.463 106.25 84.083V106.25H165.917C158.807 90.7591 143.161 80 125 80Z" fill="#F7F7F4"/>
</svg>
