<svg width="1480" height="222" viewBox="0 0 1480 222" fill="none" xmlns="http://www.w3.org/2000/svg">
<path d="M70.3896 1.46973C98.827 1.46973 119.578 7.60354 132.641 19.8711C145.704 32.0381 152.235 48.8302 152.235 70.248C152.235 79.9012 150.778 89.1522 147.864 98.001C144.95 106.749 140.177 114.542 133.545 121.38C127.013 128.217 118.271 133.648 107.318 137.67C96.3655 141.591 82.85 143.552 66.7725 143.552H46.7256V221.983H0V1.46973H70.3896ZM627.21 1.46973C647.207 1.46973 663.687 3.88241 676.649 8.70898C689.712 13.5356 699.409 20.8264 705.739 30.5801C712.07 40.3338 715.235 52.6513 715.235 67.5332C715.235 77.5886 713.326 86.3872 709.508 93.9287C705.689 101.47 700.665 107.855 694.435 113.084C688.205 118.313 681.472 122.586 674.237 125.904L739.051 221.983H687.2L634.596 137.368H609.726V221.983H563V1.46973H627.21ZM973.372 40.3838H913.533V221.983H866.808V40.3838H806.969V1.46973H973.372V40.3838ZM1254.27 221.983H1203.93L1187.95 169.495H1107.61L1091.63 221.983H1041.29L1119.07 0.564453H1176.19L1254.27 221.983ZM1390.62 183.371H1480V221.983H1343.89V1.46973H1390.62V183.371ZM346.5 0C407.527 0 457 49.4725 457 110.5C457 171.527 407.527 221 346.5 221C285.473 221 236 171.527 236 110.5C236 49.4725 285.473 0 346.5 0ZM286.213 138.125C296.688 160.949 319.743 176.8 346.5 176.8C356.359 176.8 365.715 174.647 374.125 170.787V138.125H286.213ZM1147.86 34.8027C1146.85 38.9254 1145.44 44.0538 1143.63 50.1875C1141.93 56.2207 1140.27 61.9529 1138.66 67.3828C1137.05 72.8123 1135.9 76.6834 1135.19 78.9961L1119.37 130.278H1176.79L1160.82 78.9961C1159.81 75.5773 1158.46 71.2033 1156.75 65.874C1155.14 60.4442 1153.48 54.964 1151.77 49.4336C1150.17 43.8026 1148.86 38.9254 1147.86 34.8027ZM46.7256 105.241H62.0996C70.8418 105.241 78.4293 104.084 84.8604 101.771C91.2912 99.4587 96.2653 95.8391 99.7822 90.9121C103.299 85.985 105.058 79.6499 105.058 71.9072C105.058 61.0475 102.043 53.0032 96.0137 47.7744C89.9846 42.4451 80.6396 39.7803 67.9785 39.7803H46.7256V105.241ZM609.726 99.3584H624.799C640.273 99.3584 651.327 96.7942 657.959 91.666C664.691 86.4373 668.058 78.7953 668.058 68.7402C668.058 58.2827 664.44 50.8414 657.205 46.417C650.071 41.9927 638.967 39.7803 623.895 39.7803H609.726V99.3584ZM346.5 44.2002C336.641 44.2002 327.285 46.3521 318.875 50.2119V82.875H406.787C396.312 60.0511 373.257 44.2002 346.5 44.2002Z" fill="#26251E"/>
</svg>
